<mxfile host="65bd71144e">
    <diagram id="hKK-KrV53pJkhqWaVgWT" name="Page-1">
        <mxGraphModel dx="569" dy="246" grid="0" gridSize="10" guides="1" tooltips="1" connect="1" arrows="1" fold="1" page="0" pageScale="1" pageWidth="850" pageHeight="1100" background="none" math="0" shadow="0">
            <root>
                <mxCell id="0"/>
                <mxCell id="1" parent="0"/>
                <mxCell id="56" style="edgeStyle=none;html=1;entryX=0;entryY=0.5;entryDx=0;entryDy=0;fontFamily=Tahoma;fontSize=13;" parent="1" source="24" target="53" edge="1">
                    <mxGeometry relative="1" as="geometry"/>
                </mxCell>
                <mxCell id="24" value="4.0 + 0i" style="rounded=0;whiteSpace=wrap;html=1;fontFamily=Tahoma;fontSize=13;fontStyle=0" parent="1" vertex="1">
                    <mxGeometry x="160" y="120" width="80" height="40" as="geometry"/>
                </mxCell>
                <mxCell id="27" style="edgeStyle=none;html=1;entryX=0.5;entryY=1;entryDx=0;entryDy=0;fontFamily=Tahoma;fontSize=13;fontStyle=0" parent="1" source="25" target="24" edge="1">
                    <mxGeometry relative="1" as="geometry"/>
                </mxCell>
                <mxCell id="25" value="4.0" style="rounded=0;whiteSpace=wrap;html=1;fontFamily=Tahoma;fontSize=13;fontStyle=0" parent="1" vertex="1">
                    <mxGeometry x="160" y="200" width="80" height="40" as="geometry"/>
                </mxCell>
                <mxCell id="29" style="edgeStyle=none;html=1;entryX=0.5;entryY=1;entryDx=0;entryDy=0;fontFamily=Tahoma;fontSize=13;fontStyle=0" parent="1" source="28" target="25" edge="1">
                    <mxGeometry relative="1" as="geometry"/>
                </mxCell>
                <mxCell id="28" value="4/1" style="rounded=0;whiteSpace=wrap;html=1;fontFamily=Tahoma;fontSize=13;fontStyle=0" parent="1" vertex="1">
                    <mxGeometry x="160" y="280" width="80" height="40" as="geometry"/>
                </mxCell>
                <mxCell id="31" style="edgeStyle=none;html=1;entryX=0.5;entryY=1;entryDx=0;entryDy=0;fontFamily=Tahoma;fontSize=13;fontStyle=0" parent="1" source="30" target="28" edge="1">
                    <mxGeometry relative="1" as="geometry"/>
                </mxCell>
                <mxCell id="30" value="4" style="rounded=0;whiteSpace=wrap;html=1;fontFamily=Tahoma;fontSize=13;fontStyle=0" parent="1" vertex="1">
                    <mxGeometry x="160" y="360" width="80" height="40" as="geometry"/>
                </mxCell>
                <mxCell id="36" style="edgeStyle=none;html=1;entryX=0.5;entryY=1;entryDx=0;entryDy=0;fontFamily=Tahoma;fontSize=13;fontStyle=0" parent="1" source="32" target="33" edge="1">
                    <mxGeometry relative="1" as="geometry"/>
                </mxCell>
                <mxCell id="32" value="inteiros" style="rounded=0;whiteSpace=wrap;html=1;fontFamily=Tahoma;fontSize=13;fontStyle=0" parent="1" vertex="1">
                    <mxGeometry x="40" y="360" width="80" height="40" as="geometry"/>
                </mxCell>
                <mxCell id="37" style="edgeStyle=none;html=1;entryX=0.5;entryY=1;entryDx=0;entryDy=0;fontFamily=Tahoma;fontSize=13;fontStyle=0" parent="1" source="33" target="34" edge="1">
                    <mxGeometry relative="1" as="geometry"/>
                </mxCell>
                <mxCell id="33" value="racionais" style="rounded=0;whiteSpace=wrap;html=1;fontFamily=Tahoma;fontSize=13;fontStyle=0" parent="1" vertex="1">
                    <mxGeometry x="40" y="280" width="80" height="40" as="geometry"/>
                </mxCell>
                <mxCell id="38" style="edgeStyle=none;html=1;entryX=0.5;entryY=1;entryDx=0;entryDy=0;fontFamily=Tahoma;fontSize=13;fontStyle=0" parent="1" source="34" target="35" edge="1">
                    <mxGeometry relative="1" as="geometry"/>
                </mxCell>
                <mxCell id="34" value="reais" style="rounded=0;whiteSpace=wrap;html=1;fontFamily=Tahoma;fontSize=13;fontStyle=0" parent="1" vertex="1">
                    <mxGeometry x="40" y="200" width="80" height="40" as="geometry"/>
                </mxCell>
                <mxCell id="35" value="complexos" style="rounded=0;whiteSpace=wrap;html=1;fontFamily=Tahoma;fontSize=13;fontStyle=0" parent="1" vertex="1">
                    <mxGeometry x="40" y="120" width="80" height="40" as="geometry"/>
                </mxCell>
                <mxCell id="57" style="edgeStyle=none;html=1;entryX=0;entryY=0.5;entryDx=0;entryDy=0;fontFamily=Tahoma;fontSize=13;" parent="1" source="40" target="53" edge="1">
                    <mxGeometry relative="1" as="geometry"/>
                </mxCell>
                <mxCell id="40" value="5.2 + 2.0i" style="rounded=0;whiteSpace=wrap;html=1;fontFamily=Tahoma;fontSize=13;fontStyle=0" parent="1" vertex="1">
                    <mxGeometry x="280" y="120" width="80" height="40" as="geometry"/>
                </mxCell>
                <mxCell id="48" value="9.2 + 2.0i" style="rounded=0;whiteSpace=wrap;html=1;fontFamily=Tahoma;fontSize=13;fontStyle=0" parent="1" vertex="1">
                    <mxGeometry x="400" y="40" width="80" height="40" as="geometry"/>
                </mxCell>
                <mxCell id="50" value="add-int" style="rounded=0;whiteSpace=wrap;html=1;fontFamily=Tahoma;fontSize=13;fontStyle=0" parent="1" vertex="1">
                    <mxGeometry x="400" y="360" width="80" height="40" as="geometry"/>
                </mxCell>
                <mxCell id="51" value="add-rat" style="rounded=0;whiteSpace=wrap;html=1;fontFamily=Tahoma;fontSize=13;fontStyle=0" parent="1" vertex="1">
                    <mxGeometry x="400" y="280" width="80" height="40" as="geometry"/>
                </mxCell>
                <mxCell id="52" value="add-real" style="rounded=0;whiteSpace=wrap;html=1;fontFamily=Tahoma;fontSize=13;fontStyle=0" parent="1" vertex="1">
                    <mxGeometry x="400" y="200" width="80" height="40" as="geometry"/>
                </mxCell>
                <mxCell id="58" style="edgeStyle=none;html=1;entryX=0.5;entryY=1;entryDx=0;entryDy=0;fontFamily=Tahoma;fontSize=13;" parent="1" source="53" target="48" edge="1">
                    <mxGeometry relative="1" as="geometry"/>
                </mxCell>
                <mxCell id="53" value="add-complex" style="rounded=0;whiteSpace=wrap;html=1;fontFamily=Tahoma;fontSize=13;fontStyle=0" parent="1" vertex="1">
                    <mxGeometry x="400" y="120" width="80" height="40" as="geometry"/>
                </mxCell>
                <mxCell id="60" value="add" style="rounded=0;whiteSpace=wrap;html=1;fontFamily=Tahoma;fontSize=13;fontStyle=0" parent="1" vertex="1">
                    <mxGeometry x="120" y="480" width="400" height="40" as="geometry"/>
                </mxCell>
                <mxCell id="61" value="add-int" style="rounded=0;whiteSpace=wrap;html=1;fontFamily=Tahoma;fontSize=13;fontStyle=0" parent="1" vertex="1">
                    <mxGeometry x="120" y="520" width="80" height="40" as="geometry"/>
                </mxCell>
                <mxCell id="62" value="add-rat" style="rounded=0;whiteSpace=wrap;html=1;fontFamily=Tahoma;fontSize=13;fontStyle=0" parent="1" vertex="1">
                    <mxGeometry x="200" y="520" width="80" height="40" as="geometry"/>
                </mxCell>
                <mxCell id="63" value="add-real" style="rounded=0;whiteSpace=wrap;html=1;fontFamily=Tahoma;fontSize=13;fontStyle=0" parent="1" vertex="1">
                    <mxGeometry x="280" y="520" width="80" height="40" as="geometry"/>
                </mxCell>
                <mxCell id="64" value="add-complex" style="rounded=0;whiteSpace=wrap;html=1;fontFamily=Tahoma;fontSize=13;fontStyle=0" parent="1" vertex="1">
                    <mxGeometry x="360" y="520" width="80" height="40" as="geometry"/>
                </mxCell>
                <mxCell id="80" style="edgeStyle=none;html=1;entryX=0.5;entryY=0;entryDx=0;entryDy=0;exitX=0.5;exitY=1;exitDx=0;exitDy=0;" parent="1" source="82" target="60" edge="1">
                    <mxGeometry relative="1" as="geometry">
                        <mxPoint x="480" y="601" as="sourcePoint"/>
                        <Array as="points">
                            <mxPoint x="480" y="590"/>
                            <mxPoint x="550" y="590"/>
                            <mxPoint x="550" y="510"/>
                            <mxPoint x="550" y="450"/>
                            <mxPoint x="480" y="450"/>
                            <mxPoint x="430" y="450"/>
                            <mxPoint x="340" y="450"/>
                            <mxPoint x="320" y="450"/>
                        </Array>
                    </mxGeometry>
                </mxCell>
                <mxCell id="65" value="add-poly" style="rounded=0;whiteSpace=wrap;html=1;fontFamily=Tahoma;fontSize=13;fontStyle=0" parent="1" vertex="1">
                    <mxGeometry x="440" y="520" width="80" height="40" as="geometry"/>
                </mxCell>
                <mxCell id="78" value="+" style="rounded=0;whiteSpace=wrap;html=1;fontFamily=Tahoma;fontSize=13;fontStyle=0" parent="1" vertex="1">
                    <mxGeometry x="120" y="560" width="320" height="40" as="geometry"/>
                </mxCell>
                <mxCell id="82" value="" style="rounded=0;whiteSpace=wrap;html=1;" parent="1" vertex="1">
                    <mxGeometry x="440" y="560" width="80" height="11" as="geometry"/>
                </mxCell>
                <mxCell id="85" style="edgeStyle=none;html=1;entryX=0.5;entryY=1;entryDx=0;entryDy=0;fontFamily=Tahoma;fontSize=13;fontStyle=0" parent="1" source="86" target="88" edge="1">
                    <mxGeometry relative="1" as="geometry"/>
                </mxCell>
                <mxCell id="86" value="inteiros" style="rounded=0;whiteSpace=wrap;html=1;fontFamily=Tahoma;fontSize=13;fontStyle=0" parent="1" vertex="1">
                    <mxGeometry x="40" y="1040" width="80" height="40" as="geometry"/>
                </mxCell>
                <mxCell id="87" style="edgeStyle=none;html=1;entryX=0.5;entryY=1;entryDx=0;entryDy=0;fontFamily=Tahoma;fontSize=13;fontStyle=0" parent="1" source="88" target="90" edge="1">
                    <mxGeometry relative="1" as="geometry"/>
                </mxCell>
                <mxCell id="88" value="racionais" style="rounded=0;whiteSpace=wrap;html=1;fontFamily=Tahoma;fontSize=13;fontStyle=0" parent="1" vertex="1">
                    <mxGeometry x="40" y="960" width="80" height="40" as="geometry"/>
                </mxCell>
                <mxCell id="89" style="edgeStyle=none;html=1;entryX=0.5;entryY=1;entryDx=0;entryDy=0;fontFamily=Tahoma;fontSize=13;fontStyle=0" parent="1" source="90" target="92" edge="1">
                    <mxGeometry relative="1" as="geometry"/>
                </mxCell>
                <mxCell id="90" value="reais" style="rounded=0;whiteSpace=wrap;html=1;fontFamily=Tahoma;fontSize=13;fontStyle=0" parent="1" vertex="1">
                    <mxGeometry x="40" y="880" width="80" height="40" as="geometry"/>
                </mxCell>
                <mxCell id="91" style="edgeStyle=none;html=1;" parent="1" source="92" edge="1">
                    <mxGeometry relative="1" as="geometry">
                        <mxPoint x="80" y="760" as="targetPoint"/>
                    </mxGeometry>
                </mxCell>
                <mxCell id="92" value="complexos" style="rounded=0;whiteSpace=wrap;html=1;fontFamily=Tahoma;fontSize=13;fontStyle=0" parent="1" vertex="1">
                    <mxGeometry x="40" y="800" width="80" height="40" as="geometry"/>
                </mxCell>
                <mxCell id="93" value="polinômios" style="rounded=0;whiteSpace=wrap;html=1;fontFamily=Tahoma;fontSize=13;fontStyle=0" parent="1" vertex="1">
                    <mxGeometry x="40" y="720" width="80" height="40" as="geometry"/>
                </mxCell>
                <mxCell id="104" style="edgeStyle=none;html=1;" parent="1" source="95" edge="1">
                    <mxGeometry relative="1" as="geometry">
                        <mxPoint x="200" y="840" as="targetPoint"/>
                    </mxGeometry>
                </mxCell>
                <mxCell id="95" value="2.3" style="rounded=0;whiteSpace=wrap;html=1;fontFamily=Tahoma;fontSize=13;fontStyle=0" parent="1" vertex="1">
                    <mxGeometry x="160" y="880" width="80" height="40" as="geometry"/>
                </mxCell>
                <mxCell id="96" value="add-int" style="rounded=0;whiteSpace=wrap;html=1;fontFamily=Tahoma;fontSize=13;fontStyle=0" parent="1" vertex="1">
                    <mxGeometry x="400" y="1040" width="80" height="40" as="geometry"/>
                </mxCell>
                <mxCell id="97" value="add-rat" style="rounded=0;whiteSpace=wrap;html=1;fontFamily=Tahoma;fontSize=13;fontStyle=0" parent="1" vertex="1">
                    <mxGeometry x="400" y="960" width="80" height="40" as="geometry"/>
                </mxCell>
                <mxCell id="98" value="add-real" style="rounded=0;whiteSpace=wrap;html=1;fontFamily=Tahoma;fontSize=13;fontStyle=0" parent="1" vertex="1">
                    <mxGeometry x="400" y="880" width="80" height="40" as="geometry"/>
                </mxCell>
                <mxCell id="99" value="add-complex" style="rounded=0;whiteSpace=wrap;html=1;fontFamily=Tahoma;fontSize=13;fontStyle=0" parent="1" vertex="1">
                    <mxGeometry x="400" y="800" width="80" height="40" as="geometry"/>
                </mxCell>
                <mxCell id="113" style="edgeStyle=none;html=1;" parent="1" source="100" edge="1">
                    <mxGeometry relative="1" as="geometry">
                        <mxPoint x="519.9999999999998" y="740" as="targetPoint"/>
                    </mxGeometry>
                </mxCell>
                <mxCell id="100" value="add-poly" style="rounded=0;whiteSpace=wrap;html=1;fontFamily=Tahoma;fontSize=13;fontStyle=0" parent="1" vertex="1">
                    <mxGeometry x="400" y="720" width="80" height="40" as="geometry"/>
                </mxCell>
                <mxCell id="111" style="edgeStyle=none;html=1;entryX=0;entryY=0.5;entryDx=0;entryDy=0;" parent="1" source="101" target="100" edge="1">
                    <mxGeometry relative="1" as="geometry"/>
                </mxCell>
                <mxCell id="101" value="2x^1 + 3x^5" style="rounded=0;whiteSpace=wrap;html=1;fontFamily=Tahoma;fontSize=13;fontStyle=0" parent="1" vertex="1">
                    <mxGeometry x="280" y="720" width="80" height="40" as="geometry"/>
                </mxCell>
                <mxCell id="106" style="edgeStyle=none;html=1;" parent="1" source="105" edge="1">
                    <mxGeometry relative="1" as="geometry">
                        <mxPoint x="200" y="760" as="targetPoint"/>
                    </mxGeometry>
                </mxCell>
                <mxCell id="105" value="2.3 + 0i" style="rounded=0;whiteSpace=wrap;html=1;fontFamily=Tahoma;fontSize=13;fontStyle=0" parent="1" vertex="1">
                    <mxGeometry x="160" y="800" width="80" height="40" as="geometry"/>
                </mxCell>
                <mxCell id="107" value="(2.3 + 0i)x^0" style="rounded=0;whiteSpace=wrap;html=1;fontFamily=Tahoma;fontSize=13;fontStyle=0" parent="1" vertex="1">
                    <mxGeometry x="155" y="720" width="90" height="40" as="geometry"/>
                </mxCell>
                <mxCell id="110" style="edgeStyle=none;html=1;entryX=0;entryY=0.5;entryDx=0;entryDy=0;" parent="1" target="101" edge="1">
                    <mxGeometry relative="1" as="geometry">
                        <mxPoint x="244.99999999999977" y="740" as="sourcePoint"/>
                    </mxGeometry>
                </mxCell>
                <mxCell id="114" value="&amp;nbsp;(2.3 + 0i)x^0 + 2x^1 + 3x^5" style="rounded=0;whiteSpace=wrap;html=1;fontFamily=Tahoma;fontSize=13;fontStyle=0" parent="1" vertex="1">
                    <mxGeometry x="520" y="720" width="200" height="40" as="geometry"/>
                </mxCell>
                <mxCell id="115" style="edgeStyle=none;html=1;entryX=0.5;entryY=1;entryDx=0;entryDy=0;fontFamily=Tahoma;fontSize=13;fontStyle=0" parent="1" source="116" target="118" edge="1">
                    <mxGeometry relative="1" as="geometry"/>
                </mxCell>
                <mxCell id="116" value="inteiros" style="rounded=0;whiteSpace=wrap;html=1;fontFamily=Tahoma;fontSize=13;fontStyle=0" parent="1" vertex="1">
                    <mxGeometry x="880" y="320" width="80" height="40" as="geometry"/>
                </mxCell>
                <mxCell id="117" style="edgeStyle=none;html=1;entryX=0.5;entryY=1;entryDx=0;entryDy=0;fontFamily=Tahoma;fontSize=13;fontStyle=0" parent="1" source="118" target="120" edge="1">
                    <mxGeometry relative="1" as="geometry"/>
                </mxCell>
                <mxCell id="118" value="racionais" style="rounded=0;whiteSpace=wrap;html=1;fontFamily=Tahoma;fontSize=13;fontStyle=0" parent="1" vertex="1">
                    <mxGeometry x="880" y="240" width="80" height="40" as="geometry"/>
                </mxCell>
                <mxCell id="119" style="edgeStyle=none;html=1;entryX=0.5;entryY=1;entryDx=0;entryDy=0;fontFamily=Tahoma;fontSize=13;fontStyle=0" parent="1" source="120" target="121" edge="1">
                    <mxGeometry relative="1" as="geometry"/>
                </mxCell>
                <mxCell id="120" value="reais" style="rounded=0;whiteSpace=wrap;html=1;fontFamily=Tahoma;fontSize=13;fontStyle=0" parent="1" vertex="1">
                    <mxGeometry x="880" y="160" width="80" height="40" as="geometry"/>
                </mxCell>
                <mxCell id="121" value="complexos" style="rounded=0;whiteSpace=wrap;html=1;fontFamily=Tahoma;fontSize=13;fontStyle=0" parent="1" vertex="1">
                    <mxGeometry x="880" y="80" width="80" height="40" as="geometry"/>
                </mxCell>
                <mxCell id="126" style="edgeStyle=none;html=1;fontFamily=Tahoma;" parent="1" source="125" edge="1">
                    <mxGeometry relative="1" as="geometry">
                        <mxPoint x="1080" y="100" as="targetPoint"/>
                    </mxGeometry>
                </mxCell>
                <mxCell id="125" value="int" style="rounded=0;whiteSpace=wrap;html=1;fontFamily=Tahoma;fontSize=13;fontStyle=0" parent="1" vertex="1">
                    <mxGeometry x="1000" y="80" width="40" height="40" as="geometry"/>
                </mxCell>
                <mxCell id="127" value="rat" style="rounded=0;whiteSpace=wrap;html=1;fontFamily=Tahoma;fontSize=13;fontStyle=0" parent="1" vertex="1">
                    <mxGeometry x="1080" y="80" width="40" height="40" as="geometry"/>
                </mxCell>
                <mxCell id="129" style="edgeStyle=none;html=1;fontFamily=Tahoma;" parent="1" source="128" edge="1">
                    <mxGeometry relative="1" as="geometry">
                        <mxPoint x="1080" y="180" as="targetPoint"/>
                    </mxGeometry>
                </mxCell>
                <mxCell id="128" value="rat" style="rounded=0;whiteSpace=wrap;html=1;fontFamily=Tahoma;fontSize=13;fontStyle=0" parent="1" vertex="1">
                    <mxGeometry x="1000" y="160" width="40" height="40" as="geometry"/>
                </mxCell>
                <mxCell id="130" value="real" style="rounded=0;whiteSpace=wrap;html=1;fontFamily=Tahoma;fontSize=13;fontStyle=0" parent="1" vertex="1">
                    <mxGeometry x="1080" y="160" width="40" height="40" as="geometry"/>
                </mxCell>
                <mxCell id="133" value="" style="shape=curlyBracket;whiteSpace=wrap;html=1;rounded=1;flipH=1;labelPosition=right;verticalLabelPosition=middle;align=left;verticalAlign=middle;fontFamily=Tahoma;fontSize=60;size=0.5;" parent="1" vertex="1">
                    <mxGeometry x="1130" y="80" width="30" height="120" as="geometry"/>
                </mxCell>
                <mxCell id="135" style="edgeStyle=none;html=1;fontFamily=Tahoma;fontSize=60;exitX=1;exitY=0.5;exitDx=0;exitDy=0;" parent="1" source="143" edge="1">
                    <mxGeometry relative="1" as="geometry">
                        <mxPoint x="1260" y="140" as="targetPoint"/>
                        <mxPoint x="1225" y="140" as="sourcePoint"/>
                    </mxGeometry>
                </mxCell>
                <mxCell id="136" value="real" style="rounded=0;whiteSpace=wrap;html=1;fontFamily=Tahoma;fontSize=13;fontStyle=0" parent="1" vertex="1">
                    <mxGeometry x="1260" y="120" width="40" height="40" as="geometry"/>
                </mxCell>
                <mxCell id="138" style="edgeStyle=none;html=1;fontFamily=Tahoma;fontSize=60;exitX=1;exitY=0.5;exitDx=0;exitDy=0;" parent="1" source="142" edge="1">
                    <mxGeometry relative="1" as="geometry">
                        <mxPoint x="1260" y="220" as="targetPoint"/>
                        <mxPoint x="1225" y="220" as="sourcePoint"/>
                    </mxGeometry>
                </mxCell>
                <mxCell id="140" value="complex" style="rounded=0;whiteSpace=wrap;html=1;fontFamily=Tahoma;fontSize=10;fontStyle=0" parent="1" vertex="1">
                    <mxGeometry x="1260" y="200" width="40" height="40" as="geometry"/>
                </mxCell>
                <mxCell id="142" value="real" style="rounded=0;whiteSpace=wrap;html=1;fontFamily=Tahoma;fontSize=13;fontStyle=0" parent="1" vertex="1">
                    <mxGeometry x="1180" y="200" width="40" height="40" as="geometry"/>
                </mxCell>
                <mxCell id="143" value="int" style="rounded=0;whiteSpace=wrap;html=1;fontFamily=Tahoma;fontSize=13;fontStyle=0" parent="1" vertex="1">
                    <mxGeometry x="1180" y="120" width="40" height="40" as="geometry"/>
                </mxCell>
                <mxCell id="144" value="" style="shape=curlyBracket;whiteSpace=wrap;html=1;rounded=1;flipH=1;labelPosition=right;verticalLabelPosition=middle;align=left;verticalAlign=middle;fontFamily=Tahoma;fontSize=60;size=0.5;" parent="1" vertex="1">
                    <mxGeometry x="1310" y="120" width="30" height="120" as="geometry"/>
                </mxCell>
                <mxCell id="147" style="edgeStyle=none;html=1;entryX=0;entryY=0.5;entryDx=0;entryDy=0;fontFamily=Tahoma;fontSize=13;" parent="1" source="145" target="146" edge="1">
                    <mxGeometry relative="1" as="geometry"/>
                </mxCell>
                <mxCell id="145" value="int" style="rounded=0;whiteSpace=wrap;html=1;fontFamily=Tahoma;fontSize=13;fontStyle=0" parent="1" vertex="1">
                    <mxGeometry x="1360" y="160" width="40" height="40" as="geometry"/>
                </mxCell>
                <mxCell id="146" value="complex" style="rounded=0;whiteSpace=wrap;html=1;fontFamily=Tahoma;fontSize=10;fontStyle=0" parent="1" vertex="1">
                    <mxGeometry x="1440" y="160" width="40" height="40" as="geometry"/>
                </mxCell>
                <mxCell id="148" value="add" style="rounded=0;whiteSpace=wrap;html=1;fontFamily=Tahoma;fontSize=13;fontStyle=0" parent="1" vertex="1">
                    <mxGeometry x="880" y="560" width="480" height="40" as="geometry"/>
                </mxCell>
                <mxCell id="149" value="add-int" style="rounded=0;whiteSpace=wrap;html=1;fontFamily=Tahoma;fontSize=13;fontStyle=0" parent="1" vertex="1">
                    <mxGeometry x="880" y="600" width="80" height="40" as="geometry"/>
                </mxCell>
                <mxCell id="150" value="add-rat" style="rounded=0;whiteSpace=wrap;html=1;fontFamily=Tahoma;fontSize=13;fontStyle=0" parent="1" vertex="1">
                    <mxGeometry x="960" y="600" width="80" height="40" as="geometry"/>
                </mxCell>
                <mxCell id="151" value="add-real" style="rounded=0;whiteSpace=wrap;html=1;fontFamily=Tahoma;fontSize=13;fontStyle=0" parent="1" vertex="1">
                    <mxGeometry x="1040" y="600" width="80" height="40" as="geometry"/>
                </mxCell>
                <mxCell id="152" value="add-complex" style="rounded=0;whiteSpace=wrap;html=1;fontFamily=Tahoma;fontSize=13;fontStyle=0" parent="1" vertex="1">
                    <mxGeometry x="1120" y="600" width="80" height="40" as="geometry"/>
                </mxCell>
                <mxCell id="153" style="edgeStyle=none;html=1;entryX=0.5;entryY=0;entryDx=0;entryDy=0;exitX=0.5;exitY=1;exitDx=0;exitDy=0;" parent="1" source="156" target="148" edge="1">
                    <mxGeometry relative="1" as="geometry">
                        <mxPoint x="1240" y="681" as="sourcePoint"/>
                        <Array as="points">
                            <mxPoint x="1280" y="670"/>
                            <mxPoint x="1388" y="670"/>
                            <mxPoint x="1388" y="603"/>
                            <mxPoint x="1388" y="530"/>
                            <mxPoint x="1240" y="530"/>
                            <mxPoint x="1190" y="530"/>
                            <mxPoint x="1120" y="530"/>
                        </Array>
                    </mxGeometry>
                </mxCell>
                <mxCell id="154" value="add-poly" style="rounded=0;whiteSpace=wrap;html=1;fontFamily=Tahoma;fontSize=13;fontStyle=0" parent="1" vertex="1">
                    <mxGeometry x="1200" y="600" width="80" height="40" as="geometry"/>
                </mxCell>
                <mxCell id="155" value="+" style="rounded=0;whiteSpace=wrap;html=1;fontFamily=Tahoma;fontSize=13;fontStyle=0" parent="1" vertex="1">
                    <mxGeometry x="880" y="640" width="320" height="40" as="geometry"/>
                </mxCell>
                <mxCell id="156" value="" style="rounded=0;whiteSpace=wrap;html=1;" parent="1" vertex="1">
                    <mxGeometry x="1200" y="640" width="160" height="11" as="geometry"/>
                </mxCell>
                <mxCell id="157" value="add-matrix" style="rounded=0;whiteSpace=wrap;html=1;fontFamily=Tahoma;fontSize=13;fontStyle=0" parent="1" vertex="1">
                    <mxGeometry x="1280" y="600" width="80" height="40" as="geometry"/>
                </mxCell>
                <mxCell id="158" value="add" style="rounded=0;whiteSpace=wrap;html=1;fontFamily=Tahoma;fontSize=13;fontStyle=0" vertex="1" parent="1">
                    <mxGeometry x="852" y="811" width="320" height="40" as="geometry"/>
                </mxCell>
                <mxCell id="159" value="add-int" style="rounded=0;whiteSpace=wrap;html=1;fontFamily=Tahoma;fontSize=13;fontStyle=0" vertex="1" parent="1">
                    <mxGeometry x="852" y="851" width="80" height="40" as="geometry"/>
                </mxCell>
                <mxCell id="160" value="add-rat" style="rounded=0;whiteSpace=wrap;html=1;fontFamily=Tahoma;fontSize=13;fontStyle=0" vertex="1" parent="1">
                    <mxGeometry x="932" y="851" width="80" height="40" as="geometry"/>
                </mxCell>
                <mxCell id="161" value="add-real" style="rounded=0;whiteSpace=wrap;html=1;fontFamily=Tahoma;fontSize=13;fontStyle=0" vertex="1" parent="1">
                    <mxGeometry x="1012" y="851" width="80" height="40" as="geometry"/>
                </mxCell>
                <mxCell id="162" value="add-complex" style="rounded=0;whiteSpace=wrap;html=1;fontFamily=Tahoma;fontSize=13;fontStyle=0" vertex="1" parent="1">
                    <mxGeometry x="1092" y="851" width="80" height="40" as="geometry"/>
                </mxCell>
            </root>
        </mxGraphModel>
    </diagram>
</mxfile>